<?xml version="1.0" encoding="utf-8"?>
<!-- Generator: Adobe Illustrator 18.1.0, SVG Export Plug-In . SVG Version: 6.00 Build 0)  -->
<svg version="1.1" id="Layer_1" xmlns="http://www.w3.org/2000/svg" xmlns:xlink="http://www.w3.org/1999/xlink" x="0px" y="0px"
	 viewBox="0 0 1500 1500" enable-background="new 0 0 1500 1500" xml:space="preserve">
<g>
	<path fill="none" d="M950.7,862.1c0.3,18.2,0.5,37.9,0.4,57.6C951.6,898.5,951.6,878.5,950.7,862.1z"/>
	<path fill="none" d="M949,842.7c0.2,1.4,0.4,2.9,0.5,4.4C949.3,845.6,949.1,844.1,949,842.7z"/>
	<path fill="none" d="M949.7,848.8c0.2,1.7,0.3,3.5,0.5,5.3C950,852.3,949.9,850.6,949.7,848.8z"/>
	<path fill="none" d="M950.3,855.6c0.1,2,0.3,4,0.4,6.1C950.5,859.5,950.4,857.5,950.3,855.6z"/>
	<path fill="none" d="M950.2,947.5c-0.2,3.6-0.3,7.2-0.5,10.8C949.8,954.7,950,951.1,950.2,947.5z"/>
	<path fill="none" d="M950.7,934.6c-0.1,3.4-0.2,6.8-0.4,10.2C950.4,941.4,950.5,938,950.7,934.6z"/>
	<path fill="none" d="M951,921.6c-0.1,3.4-0.2,6.8-0.3,10.3C950.9,928.5,951,925,951,921.6z"/>
	<path fill="none" d="M785.3,784.1c-0.4,0.1-0.7,0.1-1,0.2C784.5,784.3,784.9,784.2,785.3,784.1z"/>
	<path fill="none" d="M787.8,783.6c-0.8,0.2-1.5,0.3-2.1,0.4C786.2,783.9,787,783.8,787.8,783.6z"/>
	<path fill="none" d="M949.6,960.2c-0.2,4.3-0.4,8.5-0.7,12.7C949.1,968.7,949.4,964.5,949.6,960.2z"/>
	<path fill="none" d="M795.3,782.2c-2.9,0.5-5.4,1-7.3,1.4C789.9,783.2,792.3,782.7,795.3,782.2z"/>
	<path fill="none" d="M947,832.3c0.2,0.8,0.4,1.8,0.6,2.7C947.4,834.1,947.3,833.2,947,832.3z"/>
	<path fill="none" d="M944.4,825c0.2,0.3,0.4,0.8,0.5,1.2C944.7,825.8,944.6,825.4,944.4,825z"/>
	<path fill="none" d="M948.1,837.2c0.2,1.1,0.4,2.3,0.6,3.5C948.5,839.5,948.3,838.3,948.1,837.2z"/>
	<path fill="none" d="M945.8,828.2c0.2,0.6,0.4,1.3,0.6,1.9C946.2,829.5,946,828.8,945.8,828.2z"/>
	<path fill="none" d="M948,988.2c-0.2,3-0.4,6-0.6,9C947.6,994.3,947.8,991.3,948,988.2z"/>
	<path fill="none" d="M710.3,743.8c-0.2-1.7-0.4-3.6-0.6-5.5C709.9,740.2,710.1,742.1,710.3,743.8z"/>
	<path fill="none" d="M707.6,716.9c0-0.6-0.1-1.3-0.1-2C707.5,715.6,707.6,716.3,707.6,716.9z"/>
	<path fill="none" d="M708,723.8c0-0.1,0-0.3,0-0.5C708,723.5,708,723.7,708,723.8z"/>
	<path fill="none" d="M707.8,720.1c0-0.4-0.1-1-0.1-1.5C707.7,719.1,707.8,719.6,707.8,720.1z"/>
	<path fill="none" d="M706.7,703.1c-0.1-1.3-0.2-2.6-0.3-3.9C706.5,700.5,706.6,701.9,706.7,703.1z"/>
	<path fill="none" d="M707.1,708.4c-0.1-1.1-0.2-2.2-0.2-3.4C706.9,706.2,707,707.3,707.1,708.4z"/>
	<path fill="none" d="M707.4,713c-0.1-0.9-0.1-1.8-0.2-2.8C707.3,711.2,707.3,712.1,707.4,713z"/>
	<path fill="none" d="M799.9,781.3c-1.5,0.3-3,0.5-4.3,0.8C796.9,781.9,798.4,781.6,799.9,781.3z"/>
	<path fill="none" d="M947.2,1000.2c-0.2,3.3-0.5,6.7-0.7,9.9C946.8,1006.8,947,1003.6,947.2,1000.2z"/>
	<path fill="none" d="M948.9,973.3c-0.2,4-0.5,8-0.7,11.9C948.4,981.2,948.7,977.3,948.9,973.3z"/>
	<path fill="none" d="M715.6,763.3c-0.2-0.3-0.4-0.8-0.7-1.2C715.1,762.5,715.4,763,715.6,763.3z"/>
	<path fill="none" d="M712.5,755.9c-0.3-1-0.5-2.1-0.7-3.3C712,753.7,712.2,754.9,712.5,755.9z"/>
	<path fill="none" d="M711.3,750.4c-0.2-1.4-0.5-2.9-0.7-4.4C710.8,747.5,711.1,749,711.3,750.4z"/>
	<path fill="none" d="M713.9,760.3c-0.3-0.6-0.5-1.5-0.8-2.2C713.4,758.8,713.6,759.6,713.9,760.3z"/>
	<path fill="none" d="M805.4,780.4c-1.7,0.3-3.3,0.6-4.8,0.9C802.1,781,803.7,780.7,805.4,780.4z"/>
	<path fill="none" d="M988.2,851.7c0-0.7-0.1-1.5-0.1-2.2c0.1,1,0.1,2,0.2,3.1C988.3,852.3,988.3,852,988.2,851.7z"/>
	<path fill="none" d="M987.6,842.3C987.6,842.3,987.6,842.3,987.6,842.3c-0.2-2.4-0.3-4.7-0.5-7c0-0.1,0-0.3,0-0.4
		C987.3,837.4,987.5,839.8,987.6,842.3z"/>
	<path fill="none" d="M989.5,877.1c0-0.4,0-0.7,0-1.1c0-0.9-0.1-1.7-0.1-2.5C989.4,874.7,989.4,875.9,989.5,877.1z"/>
	<path fill="none" d="M989.9,888.3c0-1-0.1-2.1-0.1-3.1C989.8,886.2,989.9,887.2,989.9,888.3z"/>
	<path fill="none" d="M977.3,783.7c-0.2-0.3-0.6-0.5-0.8-0.8c0.3,0.4,0.7,0.7,1,1.1C977.4,783.9,977.3,783.8,977.3,783.7z"/>
	<path fill="none" d="M973.3,779.9c-0.3-0.2-0.6-0.3-0.9-0.5c0.5,0.4,1,0.7,1.4,1.1C973.7,780.3,973.5,780.1,973.3,779.9z"/>
	<path fill="none" d="M981,791.8c-0.4-1.4-0.8-2.6-1.2-3.6c0.5,1.2,0.9,2.6,1.3,4.1C981.1,792.1,981,791.9,981,791.8z"/>
	<path fill="none" d="M982.1,796.3c-0.2-0.8-0.3-1.4-0.5-2.1c0.3,1.1,0.5,2.2,0.8,3.5C982.3,797.2,982.2,796.7,982.1,796.3z"/>
	<path fill="none" d="M983.5,803.7c-0.1-0.7-0.2-1.3-0.3-2c-0.1-0.5-0.2-0.9-0.3-1.4c0.2,1.3,0.5,2.6,0.7,4
		C983.6,804.1,983.6,803.9,983.5,803.7z"/>
	<path fill="none" d="M984.5,810c-0.1-0.7-0.2-1.3-0.3-1.9c0-0.2-0.1-0.5-0.1-0.7c0.2,1.4,0.4,2.9,0.6,4.4
		C984.6,811.2,984.5,810.6,984.5,810z"/>
	<path fill="none" d="M989,865.4c0-1.3-0.1-2.6-0.2-3.9c0-0.2,0-0.4,0-0.6C988.8,862.4,989,863.9,989,865.4
		C989,865.4,989,865.4,989,865.4z"/>
	<path fill="none" d="M985.4,817.1c-0.1-0.5-0.1-0.9-0.2-1.4c0-0.1,0-0.2,0-0.3c0.2,1.6,0.4,3.2,0.5,4.9
		C985.6,819.2,985.5,818.1,985.4,817.1z"/>
	<path fill="none" d="M986.1,824.1c0.2,1.8,0.3,3.6,0.5,5.5C986.4,827.7,986.3,825.9,986.1,824.1z"/>
	<path fill="none" d="M961.9,774.2C961.8,774.2,961.8,774.2,961.9,774.2c0.1,0,0.2,0.1,0.3,0.1C962.1,774.3,962,774.3,961.9,774.2z"
		/>
	<path fill="none" d="M842.9,774.6c-0.2,0-0.3,0-0.5,0.1C842.6,774.6,842.8,774.6,842.9,774.6z"/>
	<path fill="none" d="M896.7,769.4c-0.2,0-0.5,0-0.7,0c0.6,0,1.2-0.1,1.8-0.1C897.4,769.3,897.1,769.3,896.7,769.4z"/>
	<path fill="none" d="M838.3,775.2c-1.2,0.2-2.3,0.3-3.5,0.5C836,775.5,837.1,775.4,838.3,775.2z"/>
	<path fill="none" d="M907.5,768.9c-0.4,0-0.8,0-1.2,0c0.7,0,1.3,0,2-0.1C908,768.9,907.7,768.9,907.5,768.9z"/>
	<path fill="none" d="M831.5,776.2c-1.4,0.2-2.7,0.4-4.1,0.6C828.8,776.6,830.1,776.4,831.5,776.2z"/>
	<path fill="none" d="M818.3,778.2c-4.5,0.7-8.6,1.4-12.3,2.1C809.7,779.6,813.8,778.9,818.3,778.2z"/>
	<path fill="none" d="M824.8,777.2c-1.7,0.3-3.3,0.5-4.9,0.8C821.5,777.7,823.1,777.4,824.8,777.2z"/>
	<path fill="none" d="M946.4,770.7c-0.5-0.1-1-0.1-1.4-0.2c0.8,0.1,1.6,0.2,2.5,0.4C947.1,770.8,946.8,770.8,946.4,770.7z"/>
	<path fill="none" d="M954.6,772.2c-0.5-0.1-1-0.2-1.5-0.3c0.6,0.1,1.3,0.2,1.9,0.4C954.8,772.3,954.7,772.2,954.6,772.2z"/>
	<path fill="none" d="M706.2,697.3c-0.1-1.4-0.2-2.8-0.4-4.2C706,694.4,706.1,695.9,706.2,697.3z"/>
	<path fill="none" d="M968.1,776.8c-0.2-0.1-0.4-0.2-0.6-0.2c0.5,0.3,1,0.6,1.6,0.8C968.8,777.2,968.5,777,968.1,776.8z"/>
	<path fill="none" d="M917.9,768.8c-0.2,0-0.5,0-0.7,0c0.3,0,0.6,0,0.9,0C918,768.8,918,768.8,917.9,768.8z"/>
	<path fill="none" d="M937.5,769.7c-0.3,0-0.6,0-0.9-0.1c0.8,0.1,1.6,0.2,2.4,0.2C938.5,769.8,938,769.7,937.5,769.7z"/>
	<path fill="none" d="M928,769.1C927.9,769.1,927.9,769.1,928,769.1c0.1,0,0.3,0,0.6,0C928.3,769.1,928.2,769.1,928,769.1z"/>
	<path fill="none" d="M707.9,722.4c0-0.3,0-0.8-0.1-1.2C707.9,721.7,707.9,722.1,707.9,722.4z"/>
	<path fill="none" d="M668.8,535c-0.6-1-1.2-2-1.8-3C667.6,532.9,668.2,534,668.8,535z"/>
	<path fill="none" d="M664.8,528.8c-0.6-0.8-1.1-1.7-1.7-2.4C663.7,527.1,664.3,528,664.8,528.8z"/>
	<path fill="none" d="M657.6,520c0.5,0.5,1,0.9,1.5,1.4C658.6,521,658.1,520.5,657.6,520z"/>
	<path fill="none" d="M705.7,690.7c-0.1-1.5-0.3-3-0.4-4.5C705.4,687.7,705.6,689.3,705.7,690.7z"/>
	<path fill="none" d="M484,492C484,492,484,492,484,492C484,492,484,492,484,492z"/>
	<path fill="none" d="M684.6,572.3c-0.5-1.6-1-3.1-1.5-4.6C683.7,569.1,684.2,570.7,684.6,572.3z"/>
	<path fill="none" d="M476.9,495.8c-0.4,0-0.7,0.1-1.1,0.1C476.2,495.9,476.6,495.9,476.9,495.8z"/>
	<path fill="none" d="M679,556.2c-0.5-1.4-1.1-2.8-1.7-4.1C677.9,553.4,678.4,554.8,679,556.2z"/>
	<path fill="none" d="M681.9,564.1c-0.5-1.5-1-3-1.6-4.4C680.9,561.1,681.4,562.6,681.9,564.1z"/>
	<path fill="none" d="M675.8,548.7c-0.6-1.3-1.1-2.6-1.7-3.8C674.7,546.1,675.3,547.4,675.8,548.7z"/>
	<path fill="none" d="M672.4,541.6c-0.6-1.1-1.2-2.3-1.8-3.4C671.3,539.3,671.9,540.4,672.4,541.6z"/>
	<path fill="none" d="M708.8,726.3c0,0.6,0.1,1.2,0.1,1.8c0-0.2,0-0.4,0-0.6C708.9,727.1,708.8,726.7,708.8,726.3z"/>
	<path fill="none" d="M709.5,736c0-0.3,0-0.8-0.1-1.1c-0.1-1.7-0.3-3.4-0.4-5.3c0.2,2.3,0.3,4.6,0.5,6.7
		C709.5,736.3,709.5,736.2,709.5,736C709.5,736.1,709.5,736.1,709.5,736z"/>
	<path fill="none" d="M708.5,720.2c0.1,1.9,0.2,3.8,0.3,5.6c-0.1-1.3-0.1-2.7-0.2-4C708.6,721.2,708.5,720.7,708.5,720.2z"/>
	<path fill="none" d="M343.1,1112.8c0.6-0.1,1.3-0.2,1.9-0.3C344.4,1112.6,343.8,1112.7,343.1,1112.8z"/>
	<path fill="none" d="M469.6,496.8c-0.4,0.1-0.8,0.1-1.2,0.2C468.9,497,469.2,496.9,469.6,496.8z"/>
	<path fill="none" d="M706.8,511c0.2,0,0.4,0.1,0.6,0.1c-0.1,0-0.1,0-0.2,0C707.1,511.1,706.9,511,706.8,511z"/>
	<path fill="none" d="M709.6,511.7c0.5,0.1,1,0.3,1.4,0.4c-0.3-0.1-0.5-0.2-0.8-0.2C710,511.8,709.8,511.7,709.6,511.7z"/>
	<path fill="none" d="M712.2,512.4c0.7,0.2,1.4,0.5,1.8,0.7c-0.4-0.2-0.9-0.4-1.6-0.6C712.3,512.4,712.2,512.4,712.2,512.4z"/>
	<path fill="none" d="M708.3,714.7c0.1,1.7,0.1,3.3,0.2,4.9c0,0,0,0,0,0C708.4,717.9,708.3,716.4,708.3,714.7z"/>
	<path fill="none" d="M703,510.2c-0.4-0.1-0.8-0.2-1.3-0.2C702.2,510,702.6,510.1,703,510.2z"/>
	<path fill="none" d="M691.7,598.3c-0.4-1.7-0.8-3.5-1.2-5.2C690.9,594.9,691.3,596.6,691.7,598.3z"/>
	<path fill="none" d="M693.7,607.3c-0.4-1.8-0.8-3.6-1.2-5.3C692.9,603.8,693.3,605.6,693.7,607.3z"/>
	<path fill="none" d="M687.2,580.8c-0.5-1.6-0.9-3.3-1.4-4.9C686.3,577.5,686.7,579.1,687.2,580.8z"/>
	<path fill="none" d="M695.5,616.3c-0.3-1.8-0.7-3.6-1.1-5.4C694.8,612.8,695.2,614.6,695.5,616.3z"/>
	<path fill="none" d="M700.1,643.2c-0.3-1.8-0.5-3.6-0.8-5.4C699.6,639.6,699.8,641.4,700.1,643.2z"/>
	<path fill="none" d="M701.3,651.9c-0.2-1.8-0.5-3.6-0.8-5.4C700.8,648.3,701.1,650.1,701.3,651.9z"/>
	<path fill="none" d="M704.3,676.4c-0.2-1.7-0.4-3.4-0.6-5.1C703.9,673,704.1,674.7,704.3,676.4z"/>
	<path fill="none" d="M697.2,625.4c-0.3-1.8-0.6-3.6-1-5.4C696.5,621.8,696.9,623.6,697.2,625.4z"/>
	<path fill="none" d="M698.7,634.3c-0.3-1.8-0.6-3.6-0.9-5.3C698.1,630.7,698.4,632.5,698.7,634.3z"/>
	<path fill="none" d="M703.4,668.6c-0.2-1.7-0.4-3.5-0.6-5.3C703,665.1,703.2,666.8,703.4,668.6z"/>
	<path fill="none" d="M689.5,589.5c-0.4-1.7-0.9-3.4-1.3-5.1C688.7,586.1,689.1,587.8,689.5,589.5z"/>
	<path fill="none" d="M705,683.8c-0.2-1.6-0.3-3.2-0.5-4.9C704.7,680.6,704.9,682.2,705,683.8z"/>
	<path fill="none" d="M702.4,660.4c-0.2-1.8-0.5-3.5-0.7-5.4C702,656.8,702.2,658.6,702.4,660.4z"/>
	<path fill="#D9C0E6" d="M709.5,736.1c0-0.4-0.1-0.7-0.1-1.1C709.5,735.3,709.5,735.7,709.5,736.1
		C709.5,736.1,709.5,736.1,709.5,736.1z"/>
	<path fill="#D9C0E6" d="M933.1,246.8c-21.4-96-58.9-164.2-58.9-164.2c-79.8,43.2-137.4,90.2-178.1,138.6
		c29.3,42.8,55.6,92.9,70.8,148.9C803.4,320.3,856.5,276.2,933.1,246.8z"/>
	<path fill="#D9C0E6" d="M708.5,719.5c-0.1-1.6-0.2-3.1-0.2-4.8C708.3,716.4,708.4,717.9,708.5,719.5
		C708.5,719.6,708.5,719.6,708.5,719.5z"/>
	<path fill="#D9C0E6" d="M708.7,723.6c0-0.6-0.1-1.2-0.1-1.9c0.1,1.3,0.1,2.8,0.2,4c0,0.2,0,0.3,0,0.5c0,0.4,0.1,0.8,0.1,1.2
		C708.8,726.2,708.8,724.9,708.7,723.6z"/>
	<path fill="#D9C0E6" d="M655.2,502.8c-0.1,0-0.1,0-0.2,0C655.1,502.8,655.1,502.8,655.2,502.8z"/>
	<path fill="#D9C0E6" d="M664,503.9c-0.3,0-0.7-0.1-1-0.1C663.3,503.9,663.6,503.9,664,503.9z"/>
	<path fill="#D9C0E6" d="M672,505c-0.3,0-0.7-0.1-1-0.1C671.4,505,671.7,505,672,505z"/>
	<path fill="#D9C0E6" d="M707.3,511.1c0.1,0,0.1,0,0.2,0c0,0,0.1,0,0.1,0C707.5,511.1,707.4,511.1,707.3,511.1
		C707.3,511.1,707.3,511.1,707.3,511.1z"/>
	<path fill="#D9C0E6" d="M697.8,509.2c-0.8-0.2-1.8-0.3-2.6-0.5C696.1,508.8,697,509,697.8,509.2z"/>
	<path fill="#D9C0E6" d="M691.8,508.1c-0.1,0-0.2,0-0.3-0.1C691.5,508,691.6,508.1,691.8,508.1z"/>
	<path fill="#D9C0E6" d="M701.8,509.9c0.4,0.1,0.9,0.2,1.3,0.2c0,0,0.1,0,0.1,0c-0.8-0.2-1.7-0.3-2.5-0.5
		C701,509.8,701.4,509.8,701.8,509.9z"/>
	<path fill="#D9C0E6" d="M710.2,511.8c0.3,0.1,0.5,0.2,0.8,0.2c0,0,0.1,0,0.1,0C710.8,512,710.5,511.9,710.2,511.8
		C710.2,511.8,710.2,511.8,710.2,511.8z"/>
	<path fill="#D9C0E6" d="M679,506.1c-0.1,0-0.2,0-0.4-0.1C678.8,506,678.9,506,679,506.1z"/>
	<path fill="#FCAFC2" d="M712.4,512.5c0.6,0.2,1.2,0.4,1.6,0.6C713.6,512.9,713.1,512.7,712.4,512.5z"/>
	<path fill="#FCAFC2" d="M469.6,496.8c2-0.3,4.1-0.6,6.2-0.9c0.4,0,0.7-1.6,1.1-1.7c2.3-0.3,4.6-2.3,7-2.3c0,0,0,0,0.1,0
		c47.4,0,119.9,2.9,171,9.3c0.1,0,0.1,0.8,0.2,0.8c2.7,0.3,5.2,1,7.8,1.4c0.3,0,0.7,0.3,1,0.3c2.4,0.3,4.8,0.7,7,1.1
		c0.3,0,0.7,0.1,1,0.2c2.3,0.3,4.5,0.7,6.6,1c0.1,0,0.2,0,0.4,0.1c4.5,0.7,8.6,1.3,12.4,2c0.1,0,0.2,0,0.3,0.1
		c1.2,0.2,2.3,0.4,3.5,0.6c0.9,0.2,1.8,0.3,2.6,0.5c1,0.2,1.9,0.4,2.7,0.5c0.9,0.2,1.7,0.3,2.5,0.5c0.3,0.1,0.7,0.1,1,0.2
		c11-47,30.3-95.9,62.8-140.3c-15.2-56-41.5-106.1-70.8-148.9C627.9,121.7,543.2,62,543.2,62c-131.1,183.9-128.7,329.1-80.6,436.1
		c0,0,0.1,0,0.1,0c1.8-0.4,3.8-0.7,5.8-1.1C468.9,497,469.2,496.9,469.6,496.8z"/>
	<path fill="#FCAFC2" d="M707.6,511.2c0.1,0,0.1,0,0.2,0c-0.1,0-0.3-0.1-0.4-0.1C707.4,511.1,707.5,511.1,707.6,511.2z"/>
	<path fill="#FCAFC2" d="M711.1,512.1C711.1,512.1,711.1,512.1,711.1,512.1c-0.2-0.1-0.5-0.2-0.9-0.3
		C710.5,511.9,710.8,512,711.1,512.1z"/>
	<path fill="#7ECBEF" d="M767,370.1c-32.5,44.4-51.8,93.3-62.8,140.3c1,0.2,1.8,0.4,2.7,0.6c0.1,0,0.3,0.1,0.5,0.1c0,0,0,0,0.1,0
		c0.1,0,0.3,0.1,0.4,0.1c0.7,0.2,1.3,0.3,1.8,0.5c0.2,0,0.4,0.1,0.6,0.1c0,0,0,0,0,0c0.4,0.1,0.7,0.2,1,0.3c0.4,0.1,0.7,0.2,1,0.3
		c0.1,0,0.2,0,0.2,0.1c0.6,0.2,1.2,0.4,1.6,0.6c0.9,0.5,0.9,0.8,0,1.1L708,724.3l0.3-9.6c0.1,1.7,0.2,3.2,0.2,4.8
		c38.7-105.6,148.3-318.7,402.7-317.6c29.2-104.1,25.8-192.7,25.8-192.7c-81.8,2.7-148.9,16.4-203.9,37.5
		C856.5,276.2,803.4,320.3,767,370.1z"/>
	<path fill="#00CDBD" d="M939.3,769.9c-0.6-0.1-1.2-0.1-1.8-0.2c0.5,0,1,0.1,1.5,0.2C939.1,769.9,939.2,769.9,939.3,769.9z"/>
	<path fill="#00CDBD" d="M947.7,770.9c-0.4-0.1-0.8-0.2-1.2-0.2c0.4,0.1,0.7,0.1,1,0.2C947.5,770.9,947.6,770.9,947.7,770.9z"/>
	<path fill="#00CDBD" d="M929.6,769.2c-0.5,0-1.1-0.1-1.6-0.1c0.2,0,0.4,0,0.6,0C928.9,769.1,929.2,769.1,929.6,769.2z"/>
	<path fill="#00CDBD" d="M977.5,784.1c-0.1-0.1-0.1-0.3-0.2-0.4C977.3,783.8,977.4,783.9,977.5,784.1
		C977.5,784,977.5,784.1,977.5,784.1z"/>
	<path fill="#00CDBD" d="M974,780.5c-0.2-0.2-0.4-0.4-0.6-0.6C973.5,780.1,973.7,780.3,974,780.5C973.9,780.5,973.9,780.5,974,780.5
		z"/>
	<path fill="#00CDBD" d="M886,770c0.3,0,0.6,0,0.8-0.1C886.5,770,886.3,770,886,770z"/>
	<path fill="#00CDBD" d="M962.8,774.6c-0.3-0.1-0.6-0.3-0.9-0.4c0.1,0,0.2,0.1,0.3,0.1C962.4,774.4,962.6,774.5,962.8,774.6z"/>
	<path fill="#00CDBD" d="M955.2,772.4c-0.2,0-0.4-0.1-0.6-0.1c0.1,0,0.3,0.1,0.4,0.1C955,772.3,955.1,772.3,955.2,772.4z"/>
	<path fill="#00CDBD" d="M758.8,769.7c-1.9-0.1-3.8-0.2-5.6-0.4c3.2,0.2,6.6,0.5,10.1,0.7C761.7,769.9,760.3,769.8,758.8,769.7z"/>
	<path fill="#00CDBD" d="M720.8,765.8C720.8,765.8,720.8,765.8,720.8,765.8c-0.3-0.1-0.6-0.1-0.9-0.2
		C720.2,765.7,720.5,765.8,720.8,765.8z"/>
	<path fill="#00CDBD" d="M751,769.2c-2.7-0.2-5.3-0.4-7.7-0.6c2.6,0.2,5.4,0.4,8.3,0.6C751.3,769.2,751.2,769.2,751,769.2z"/>
	<path fill="#00CDBD" d="M787.8,770.3c-8.5-0.4-16.7-1.3-24.3-1.3c0,0-0.1,0-0.1,0C771.1,769,779.2,769.9,787.8,770.3z"/>
	<path fill="#00CDBD" d="M908.6,768.9c-0.4,0-0.8,0-1.1,0c0.3,0,0.5,0,0.8,0C908.4,768.9,908.5,768.9,908.6,768.9z"/>
	<path fill="#00CDBD" d="M918.4,768.8c-0.2,0-0.3,0-0.5,0c0.1,0,0.1,0,0.2,0C918.2,768.8,918.3,768.8,918.4,768.8z"/>
	<path fill="#00CDBD" d="M849.1,773.8c-10.9-0.4-21.9-0.8-32.8-1.2C827.2,773,838.3,773.4,849.1,773.8L849.1,773.8z"/>
	<path fill="#00CDBD" d="M898.3,769.3c-0.5,0-1,0-1.6,0.1c0.4,0,0.7,0,1.1,0C898,769.3,898.1,769.3,898.3,769.3z"/>
	<path fill="#00CDBD" d="M969.3,777.4c-0.4-0.2-0.7-0.5-1.1-0.7c0.4,0.2,0.6,0.4,1,0.6C969.2,777.4,969.2,777.4,969.3,777.4z"/>
	<path fill="#00CDBD" d="M789.4,771.4c7.7,0.4,15.7,0.7,23.8,1C805.1,772,797.1,771.7,789.4,771.4z"/>
	<path fill="#00CDBD" d="M864.2,772c0.1,0,0.2,0,0.4,0C864.4,772,864.3,772,864.2,772z"/>
	<path fill="#00CDBD" d="M853.6,773.2c0.1,0,0.3,0,0.4,0C853.9,773.2,853.7,773.2,853.6,773.2z"/>
	<path fill="#00CDBD" d="M723.6,766.3c-0.1,0-0.1,0-0.2,0c-0.5-0.1-0.9-0.2-1.3-0.3c-0.1,0-0.2,0-0.2,0c1.1,0.2,2.4,0.4,3.8,0.6
		C724.9,766.6,724.3,766.4,723.6,766.3z"/>
	<path fill="#00CDBD" d="M733.8,767.7c2.5,0.3,5.3,0.5,8.3,0.8C739.1,768.2,736.3,768,733.8,767.7z"/>
	<path fill="#00CDBD" d="M727.3,766.9c1.8,0.2,3.8,0.5,6,0.7C731.1,767.4,729.1,767.2,727.3,766.9z"/>
	<path fill="#00CDBD" d="M708.7,723.6c0.1,1.3,0.1,2.6,0.2,3.9c0,0.2,0,0.4,0,0.6c0,0,0,0.1,0,0.1
		C708.8,726.7,708.8,725.2,708.7,723.6z"/>
	<path fill="#00CDBD" d="M709.8,719.5c0,0,1.2,0,1.2,0c0,0,0,0,0,0c0,0.1,0,0.2,0,0.3c93-71.4,290.1-192.9,492-89.8
		c78-92.9,115.1-187.1,115.1-187.1c-77.5-28.6-145.6-40.7-205.8-41C857.7,400.9,748.4,613.9,709.8,719.5z"/>
	<path fill="#A2C87E" d="M982.4,797.8c-0.1-0.5-0.2-1-0.3-1.5c0.1,0.4,0.2,0.9,0.3,1.4C982.4,797.7,982.4,797.8,982.4,797.8z"/>
	<path fill="#A2C87E" d="M987.1,835.4c0-0.5-0.1-1.1-0.1-1.6c0,0.4,0.1,0.8,0.1,1.2C987.1,835.1,987.1,835.2,987.1,835.4z"/>
	<path fill="#A2C87E" d="M988.4,854.1c0-0.8-0.1-1.6-0.1-2.4c0,0.3,0,0.6,0.1,0.9C988.3,853.1,988.4,853.6,988.4,854.1z"/>
	<path fill="#A2C87E" d="M989.9,888.3c0,0.2,0,0.3,0,0.5c0-1.3-0.1-2.5-0.1-3.8c0,0.1,0,0.1,0,0.2
		C989.8,886.2,989.9,887.2,989.9,888.3z"/>
	<path fill="#A2C87E" d="M990.2,897.7c0,0.6,0,1.3,0,1.9C990.2,899,990.2,898.4,990.2,897.7z"/>
	<path fill="#A2C87E" d="M984.2,808.1c0.1,0.6,0.2,1.3,0.3,1.9C984.4,809.4,984.3,808.7,984.2,808.1z"/>
	<path fill="#A2C87E" d="M989.5,876c0-1.1-0.1-2.2-0.1-3.4c0,0.3,0,0.6,0,0.8C989.4,874.3,989.4,875.1,989.5,876z"/>
	<path fill="#A2C87E" d="M981.2,792.4c-0.1-0.2-0.1-0.4-0.2-0.6c0,0.1,0.1,0.3,0.1,0.5C981.1,792.3,981.2,792.3,981.2,792.4z"/>
	<path fill="#A2C87E" d="M987.7,843.4c0-0.4-0.1-0.7-0.1-1.1c0,0,0,0.1,0,0.1C987.7,842.7,987.7,843,987.7,843.4z"/>
	<path fill="#A2C87E" d="M983.2,801.7c0.1,0.6,0.2,1.3,0.3,2C983.4,803,983.3,802.4,983.2,801.7z"/>
	<path fill="#A2C87E" d="M985.2,815.7c0.1,0.5,0.1,0.9,0.2,1.4C985.3,816.6,985.2,816.1,985.2,815.7z"/>
	<path fill="#A2C87E" d="M988.8,861.6c0.1,1.3,0.1,2.6,0.2,3.9C988.9,864.1,988.9,862.8,988.8,861.6z"/>
	<path fill="#A2C87E" d="M723.6,766.3c-0.5-0.1-1.1-0.2-1.5-0.3c0.5,0.1,0.8,0.2,1.3,0.3C723.5,766.3,723.6,766.3,723.6,766.3z"/>
	<path fill="#A2C87E" d="M763.5,770C763.5,770,763.5,770,763.5,770c-1.6-0.1-3.1-0.2-4.7-0.3c1.5,0.1,3,0.2,4.5,0.3
		C763.3,770,763.4,770,763.5,770z"/>
	<path fill="#A2C87E" d="M751.6,769.2c-0.2,0-0.4,0-0.6,0c0.2,0,0.3,0,0.5,0C751.6,769.2,751.6,769.2,751.6,769.2z"/>
	<path fill="#A2C87E" d="M708.5,719.9c0,0.1,0,0.2,0,0.3c0,0.5,0.1,1,0.1,1.5c0,0.6,0.1,1.3,0.1,1.9c0.1,1.5,0.2,3.1,0.2,4.6
		c0,0.5,0.1,1,0.1,1.5c0.1,1.8,0.3,3.6,0.4,5.3c0,0.4,0.1,0.8,0.1,1.1c0,0.1,0,0.2,0,0.3c0.1,0.7,0.1,1.3,0.2,2
		c0.2,1.9,0.4,3.8,0.6,5.5c0.1,0.8,0.2,1.5,0.3,2.2c0.2,1.5,0.4,3,0.7,4.4c0.1,0.8,0.3,1.5,0.5,2.2c0.2,1.1,0.5,2.3,0.7,3.3
		c0.2,0.8,0.4,1.4,0.7,2.1c0.2,0.8,0.5,1.6,0.8,2.2c0.3,0.7,0.7,1.3,1,1.9c0.2,0.4,0.4,0.9,0.7,1.2c0.6,0.8,1.2,1.3,1.9,1.6
		c0.6,0.2,1.4,0.5,2.4,0.7c0.2,0.1,0.5,0.1,0.8,0.2c-1.3-0.3-2.4-0.6-3.1-0.9c49.4-16.1,320.2-92.1,476.2,121.5
		c111.1-33.8,190-91.9,190-91.9c-58.9-80.9-120.6-133.1-182.1-164.5C999.8,527,800,648.5,708.5,719.9z"/>
	<path fill="#FFD38E" d="M717.6,765c0.7,0.3,1.9,0.6,3.1,0.9c0,0,0,0,0.1,0c0.3,0.1,0.7,0.1,1.1,0.2c0.1,0,0.1,0,0.2,0
		c0.4,0.1,1,0.2,1.5,0.3c0.7,0.1,1.3,0.2,2.1,0.4c0.5,0.1,1,0.1,1.5,0.2c1.8,0.2,3.8,0.5,6,0.7c0.2,0,0.3,0,0.5,0.1
		c2.5,0.3,5.3,0.5,8.3,0.8c0.4,0,0.8,0.1,1.2,0.1c2.4,0.2,5,0.4,7.7,0.6c0.2,0,0.4,0,0.6,0c0.5,0,1,0.1,1.5,0.1
		c1.8,0.1,3.7,0.2,5.6,0.4c1.6,0.1,3.1,0.2,4.8,0.3c7.6,0.5,15.8,0.9,24.3,1.3c0.5,0,1,0,1.5,0.1c7.8,0.3,15.7,0.6,23.8,1
		c1,0,2.1,0.1,3.1,0.1c10.9,0.4,22,0.8,32.8,1.2c1.5-0.2,3-0.4,4.5-0.5c0.1,0,0.3,0,0.4,0c3.4-0.4,6.8-0.8,10.2-1.2
		c0.1,0,0.2,0,0.4,0c7.1-0.8,14.3-1.4,21.4-1.9c0.3,0,0.6,0,0.8-0.1c3.1-0.2,6.2-0.4,9.2-0.6c0.2,0,0.5,0,0.7,0c0.5,0,1.1,0,1.6-0.1
		c2.7-0.1,5.3-0.2,7.9-0.3c0.4,0,0.8,0,1.2,0c0.4,0,0.8,0.1,1.1,0.1c2.9-0.1,5.8,0,8.6,0c0.2,0,0.5,0,0.7,0c0.2,0,0.3,0,0.5,0
		c3.2,0,6.4,0,9.5,0c0,0,0.1,0,0.1,0c0.5,0,1.1,0.1,1.6,0.1c2.4,0.1,4.8,0.3,7,0.5c0.3,0,0.6,0,0.9,0.1c0.6,0.1,1.2,0.1,1.8,0.2
		c1.9,0.2,3.8,0.4,5.7,0.7c0.5,0.1,1,0.1,1.4,0.2c0.4,0.1,0.8,0.1,1.2,0.2c1.9,0.3,3.7,0.6,5.5,1c0.5,0.1,1,0.2,1.5,0.3
		c0.2,0,0.4,0.1,0.6,0.1c2.3,0.5,4.6,1.2,6.7,1.8c0,0,0,0,0.1,0c0.3,0.1,0.6,0.3,0.9,0.4c1.7,0.6,3.3,1.2,4.8,1.9
		c0.2,0.1,0.4,0.2,0.6,0.2c0.4,0.2,0.7,0.5,1.1,0.7c1.1,0.6,2.2,1.3,3.2,1.9c0.3,0.2,0.6,0.3,0.9,0.5c0.2,0.2,0.4,0.4,0.6,0.6
		c0.9,0.7,1.7,1.6,2.5,2.4c0.2,0.3,0.6,0.5,0.8,0.8c0.1,0.1,0.1,0.3,0.2,0.4c1,1.3,1.8,2.6,2.3,4.1c0.4,1.1,0.8,2.3,1.2,3.6
		c0.1,0.2,0.1,0.4,0.2,0.6c0.1,0.5,0.3,1.2,0.4,1.8c0.2,0.7,0.4,1.4,0.5,2.1c0.1,0.5,0.2,1,0.3,1.5c0.2,0.8,0.3,1.6,0.5,2.5
		c0.1,0.5,0.2,0.9,0.3,1.4c0.1,0.6,0.2,1.3,0.3,2c0,0.2,0.1,0.4,0.1,0.6c0.2,1,0.3,2,0.5,3.1c0,0.2,0.1,0.5,0.1,0.7
		c0.1,0.6,0.2,1.3,0.3,1.9c0.1,0.6,0.1,1.2,0.2,1.7c0.2,1.2,0.3,2.3,0.5,3.6c0,0.1,0,0.2,0,0.3c0.1,0.5,0.1,0.9,0.2,1.4
		c0.1,1,0.2,2.1,0.3,3.2c0.1,1.3,0.3,2.6,0.4,3.9c0.2,1.8,0.3,3.6,0.5,5.5c0.1,1.4,0.3,2.7,0.4,4.1c0,0.5,0.1,1.1,0.1,1.6
		c0.2,2.2,0.4,4.5,0.5,6.9c0,0.4,0.1,0.7,0.1,1.1c0.1,2,0.3,4,0.4,6.1c0,0.7,0.1,1.4,0.1,2.2c0,0.8,0.1,1.6,0.1,2.4
		c0.1,2.2,0.2,4.5,0.4,6.8c0,0.2,0,0.4,0,0.6c0.1,1.3,0.2,2.6,0.2,3.9c0,0,0,0,0,0c0,2.4,0.2,4.8,0.3,7.2c0,1.1,0.1,2.2,0.1,3.4
		c0,0.4,0,0.7,0,1.1c0.1,2.6,0.2,5.2,0.3,7.9c0,1.2,0.1,2.5,0.1,3.8c0.1,3,0.2,6,0.3,9c0,0.6,0,1.3,0,1.9c2,75-0.3,165.2-6.1,203
		c150.1,51,303.5,22.3,303.5,22.3c-18.9-104.4-52.3-181.7-93.8-238.5C1037.8,672.9,767,748.8,717.6,765z"/>
	<path fill="#5BDDCE" d="M345.1,1112.5c-0.6,0.1-1.3,0.2-1.9,0.3c-0.9,0.1-1.8,0.3-2.8,0.4c-0.2,0-0.3,0.1-0.5,0.1
		c45.6,1.8,87,4.3,94.8,7.5c18.9,7.6,3.8,207.6,7.5,234c3.8,26.4,215.2,7.5,215.2,7.5s26.4-98.1-3.8-71.7
		c-30.2,26.4-139.7,15.1-151-15.1c-11.3-30.2-3.8-250.7-18.9-280.9c-15.1-30.2-185-16.7-196.3-16.7h-45.3c0,0-3.8-81.5-3.8-107.9
		c0-26.4,52.8-44.5,52.8-44.5s-34-3.4-67.9-3.4c-25.5,0-23.3,162.3-20.7,242.8c0.6,1.1,1.1,2.2,1.8,2.8
		c18.9,18.9,45.3,37.8,158.5,41.6C362.9,1109.4,356.1,1110.7,345.1,1112.5z"/>
	<path fill="#48DACB" d="M947.2,1000.2c0.1-1,0.1-2,0.2-3c0.2-3,0.4-6,0.6-9c0.1-1,0.1-2,0.2-3.1c0.2-3.9,0.5-7.9,0.7-11.9
		c0-0.1,0-0.2,0-0.4c0.2-4.2,0.5-8.5,0.7-12.7c0-0.6,0.1-1.3,0.1-1.9c0.2-3.6,0.3-7.2,0.5-10.8c0-0.9,0.1-1.8,0.1-2.7
		c0.1-3.4,0.3-6.8,0.4-10.2c0-0.9,0.1-1.8,0.1-2.7c0.1-3.5,0.2-6.9,0.3-10.3c0-0.6,0-1.3,0.1-1.9c0.1-19.7-0.1-39.4-0.4-57.6
		c0-0.1,0-0.3,0-0.4c-0.1-2.1-0.3-4.1-0.4-6.1c0-0.5-0.1-0.9-0.1-1.4c-0.1-1.8-0.3-3.6-0.5-5.3c-0.1-0.6-0.1-1.1-0.2-1.7
		c-0.2-1.5-0.4-3-0.5-4.4c-0.1-0.7-0.2-1.3-0.3-2c-0.2-1.2-0.4-2.4-0.6-3.5c-0.1-0.8-0.3-1.5-0.4-2.2c-0.2-0.9-0.4-1.9-0.6-2.7
		c-0.2-0.8-0.4-1.4-0.6-2.1c-0.2-0.7-0.4-1.3-0.6-1.9c-0.3-0.8-0.6-1.4-0.9-2c-0.2-0.4-0.3-0.8-0.5-1.2c-0.5-0.9-1-1.7-1.6-2.2
		c-19.2-18.5-46-36.8-159.3-38.4c0,0,0.3-0.1,0.8-0.2c0.3-0.1,0.6-0.1,1-0.2c0.1,0,0.2,0,0.4-0.1c0.6-0.1,1.3-0.3,2.1-0.4
		c0.1,0,0.1,0,0.2,0c1.9-0.4,4.3-0.8,7.3-1.4c0.1,0,0.2,0,0.3-0.1c1.4-0.3,2.8-0.5,4.3-0.8c0.2,0,0.4-0.1,0.6-0.1
		c1.5-0.3,3.1-0.6,4.8-0.9c0.2,0,0.4-0.1,0.6-0.1c3.8-0.7,7.9-1.3,12.3-2.1c0.5-0.1,1.1-0.2,1.6-0.2c1.6-0.3,3.2-0.5,4.9-0.8
		c0.9-0.1,1.8-0.3,2.7-0.4c1.3-0.2,2.7-0.4,4.1-0.6c1.1-0.2,2.2-0.3,3.4-0.5c1.1-0.2,2.3-0.3,3.5-0.5c1.4-0.2,2.7-0.4,4.1-0.6
		c0.2,0,0.3,0,0.5-0.1c2-0.3,4.1-0.5,6.2-0.8c-10.9-0.4-21.9-0.7-32.8-1.2c-1,0-2.1-0.1-3.1-0.1c-8.1-0.3-16.1-0.7-23.8-1
		c-0.5,0-1-0.6-1.5-0.6c-8.6-0.4-16.8-1.8-24.4-1.8c-0.1,0-0.1,0-0.2,0c-3.5,0-6.9-0.1-10.1-0.3c-0.5,0-1,0.3-1.5,0.3
		c0,0-0.1,0-0.1,0c-2.9,0-5.6-0.3-8.3-0.5c-0.4,0-0.8,0-1.2,0c-3-0.3-5.7-0.5-8.3-0.8c-0.2,0-0.3,0-0.5,0c-2.2-0.2-4.2-0.5-6-0.7
		c-0.5-0.1-1-0.1-1.5-0.2c-1.4-0.2-2.7-0.4-3.8-0.6c-0.4-0.1-0.8-0.1-1.1-0.2c-0.3-0.1-0.6-0.1-0.9-0.2c-1-0.2-1.8-0.5-2.4-0.7
		c-0.7-0.3-1.3-0.8-1.9-1.6c-0.2-0.3-0.4-0.8-0.7-1.2c-0.3-0.6-0.7-1.1-1-1.9c-0.3-0.6-0.5-1.5-0.8-2.2c-0.2-0.7-0.5-1.3-0.7-2.1
		c-0.3-1-0.5-2.1-0.7-3.3c-0.2-0.7-0.3-1.4-0.5-2.2c-0.2-1.4-0.5-2.9-0.7-4.4c-0.1-0.7-0.2-1.4-0.3-2.2c-0.2-1.7-0.4-3.6-0.6-5.5
		c-0.1-0.7-0.1-1.3-0.2-2c-0.2-2.1,0.7-4.4,0.5-6.7c0-0.5,0.9-1,0.9-1.5c0,0,0-0.1,0-0.1c0-0.6-1.1-1.2-1.2-1.8
		c0-0.2-0.5-0.3-0.6-0.5c-0.1-1.8,0.8-3.7,0.7-5.6c0-0.1,1-0.2,1-0.3c0-0.1,0-0.2,0-0.3c0-1.6-1.4-3.2-1.5-4.9l-0.9,9.6
		c0,0-0.3-0.2-0.3-0.5c0-0.1-0.2-0.3-0.2-0.5c0-0.3-0.1-0.5-0.1-0.9c0-0.3-0.1-0.8-0.1-1.2c0-0.4-0.1-0.7-0.1-1.2
		c0-0.4-0.1-1-0.1-1.5c0-0.5-0.1-1.1-0.1-1.7c0-0.6-0.1-1.3-0.1-2c0-0.6-0.1-1.2-0.1-1.9c-0.1-0.9-0.1-1.8-0.2-2.8
		c0-0.6-0.1-1.2-0.1-1.8c-0.1-1.1-0.2-2.2-0.2-3.4c0-0.6-0.1-1.2-0.1-1.9c-0.1-1.3-0.2-2.6-0.3-3.9c-0.1-0.6-0.1-1.3-0.2-1.9
		c-0.1-1.4-0.2-2.8-0.4-4.2c-0.1-0.8-0.1-1.5-0.2-2.3c-0.1-1.5-0.3-3-0.4-4.5c-0.1-0.8-0.1-1.6-0.2-2.4c-0.2-1.6-0.3-3.2-0.5-4.9
		c-0.1-0.8-0.2-1.7-0.3-2.5c-0.2-1.7-0.4-3.4-0.6-5.1c-0.1-0.9-0.2-1.8-0.3-2.7c-0.2-1.7-0.4-3.5-0.6-5.3c-0.1-1-0.2-1.9-0.4-2.9
		c-0.2-1.8-0.5-3.6-0.7-5.4c-0.1-1-0.3-2.1-0.4-3.1c-0.2-1.8-0.5-3.6-0.8-5.4c-0.2-1.1-0.3-2.2-0.5-3.3c-0.3-1.8-0.5-3.6-0.8-5.4
		c-0.2-1.2-0.4-2.4-0.6-3.5c-0.3-1.8-0.6-3.6-0.9-5.3c-0.2-1.2-0.4-2.4-0.6-3.6c-0.3-1.8-0.6-3.6-1-5.4c-0.2-1.2-0.5-2.4-0.7-3.6
		c-0.3-1.8-0.7-3.6-1.1-5.4c-0.2-1.2-0.5-2.4-0.8-3.6c-0.4-1.8-0.8-3.6-1.2-5.3c-0.3-1.2-0.6-2.5-0.8-3.7c-0.4-1.7-0.8-3.5-1.2-5.2
		c-0.3-1.2-0.6-2.4-0.9-3.7c-0.4-1.7-0.9-3.4-1.3-5.1c-0.3-1.2-0.7-2.4-1-3.6c-0.5-1.6-0.9-3.3-1.4-4.9c-0.4-1.2-0.8-2.4-1.1-3.7
		c-0.5-1.6-1-3.1-1.5-4.6c-0.4-1.2-0.8-2.4-1.2-3.6c-0.5-1.5-1-3-1.6-4.4c-0.4-1.2-0.9-2.3-1.4-3.5c-0.5-1.4-1.1-2.8-1.7-4.1
		c-0.5-1.2-1-2.2-1.5-3.4c-0.6-1.3-1.1-2.6-1.7-3.8c-0.5-1.1-1.1-2.2-1.7-3.3c-0.6-1.1-1.2-2.3-1.8-3.4c-0.6-1.1-1.2-2.1-1.9-3.2
		c-0.6-1-1.2-2-1.8-3c-0.7-1.1-1.5-2.1-2.2-3.2c-0.6-0.8-1.1-1.7-1.7-2.4c-1.3-1.7-2.7-3.4-4.1-4.9c-0.5-0.5-1-0.9-1.5-1.4
		c-0.9-0.9-1.9-1.9-2.8-2.7c-63.8-2.5-159.9,6.1-159.9,6.1s-26.4,98.1,3.8,71.7c30.2-26.4,139.7-15.1,151,15.1
		c11.3,30.2,3.8,250.8,18.9,281c15.1,30.2,185,16.8,196.3,16.8h45.3c0,0,3.8,81.3,3.8,107.8c0,26.4-52.8,44.4-52.8,44.4
		s34,3.3,68,3.3c8.1,0,13.3-16.4,16.7-41c0.3-3.6,0.6-7.4,0.8-11.3c0-0.4,0.1-0.8,0.1-1.2C946.8,1006.9,947,1003.6,947.2,1000.2z"/>
	<path fill="#00A9A2" d="M659,521.5c1.4,1.5,2.8,3.2,4.1,4.9c0.6,0.8,1.1,1.6,1.7,2.4c0.7,1,1.5,2.1,2.2,3.2c0.6,1,1.2,2,1.8,3
		c0.6,1.1,1.3,2.1,1.9,3.2c0.6,1.1,1.2,2.3,1.8,3.4c0.6,1.1,1.1,2.2,1.7,3.3c0.6,1.2,1.2,2.5,1.7,3.8c0.5,1.1,1,2.2,1.5,3.4
		c0.6,1.4,1.1,2.8,1.7,4.1c0.5,1.1,0.9,2.3,1.4,3.5c0.5,1.4,1.1,2.9,1.6,4.4c0.4,1.2,0.8,2.4,1.2,3.6c0.5,1.5,1,3.1,1.5,4.6
		c0.4,1.2,0.8,2.4,1.1,3.7c0.5,1.6,0.9,3.2,1.4,4.9c0.3,1.2,0.7,2.4,1,3.6c0.5,1.7,0.9,3.4,1.3,5.1c0.3,1.2,0.6,2.4,0.9,3.7
		c0.4,1.7,0.8,3.5,1.2,5.2c0.3,1.2,0.6,2.4,0.8,3.7c0.4,1.8,0.8,3.5,1.2,5.3c0.3,1.2,0.5,2.4,0.8,3.6c0.4,1.8,0.7,3.6,1.1,5.4
		c0.2,1.2,0.5,2.4,0.7,3.6c0.3,1.8,0.7,3.6,1,5.4c0.2,1.2,0.4,2.4,0.6,3.6c0.3,1.8,0.6,3.6,0.9,5.3c0.2,1.2,0.4,2.4,0.6,3.5
		c0.3,1.8,0.6,3.6,0.8,5.4c0.2,1.1,0.3,2.2,0.5,3.3c0.3,1.8,0.5,3.6,0.8,5.4c0.1,1.1,0.3,2.1,0.4,3.1c0.2,1.8,0.5,3.6,0.7,5.4
		c0.1,1,0.2,1.9,0.4,2.9c0.2,1.8,0.4,3.5,0.6,5.3c0.1,0.9,0.2,1.8,0.3,2.7c0.2,1.7,0.4,3.4,0.6,5.1c0.1,0.9,0.2,1.7,0.3,2.5
		c0.2,1.7,0.3,3.3,0.5,4.9c0.1,0.8,0.2,1.6,0.2,2.4c0.1,1.5,0.3,3.1,0.4,4.5c0.1,0.8,0.1,1.5,0.2,2.3c0.1,1.4,0.2,2.9,0.4,4.2
		c0.1,0.7,0.1,1.3,0.2,1.9c0.1,1.3,0.2,2.7,0.3,3.9c0,0.7,0.1,1.3,0.1,1.9c0.1,1.2,0.2,2.3,0.2,3.4c0,0.6,0.1,1.2,0.1,1.8
		c0.1,1,0.1,1.9,0.2,2.8c0,0.7,0.1,1.3,0.1,1.9c0,0.7,0.1,1.4,0.1,2c0,0.6,0.1,1.1,0.1,1.7c0,0.5,0.1,1,0.1,1.5c0,0.5,0,0.8,0.1,1.2
		c0,0.4,0,0.9,0.1,1.2c0,0.4,0,0.6,0,0.9c0,0.2,0,0.4,0,0.5c0,0.3,0,0.5,0,0.5l5.9-210.2c0.9-0.3,0.9-0.6,0-1.1
		c-0.4-0.2-1.1-0.4-1.8-0.7c-0.3-0.1-0.7-0.2-1-0.3c0,0-0.1,0-0.1,0c0,0-0.1,0-0.1,0c-0.4-0.1-0.9-0.3-1.4-0.4
		c-0.6-0.1-1.2-0.3-1.8-0.5c-0.1,0-0.1,0-0.2,0c0,0-0.1,0-0.1,0c-0.2,0-0.4-0.1-0.6-0.1c-0.9-0.2-1.7-0.4-2.7-0.6
		c-0.3-0.1-0.7-0.1-1-0.2c0,0-0.1,0-0.1,0c-0.4-0.1-0.8-0.2-1.3-0.2c-0.4-0.1-0.8-0.2-1.2-0.2c-0.9-0.2-1.8-0.3-2.7-0.5
		c-0.8-0.2-1.8-0.3-2.6-0.5c-1.1-0.2-2.2-0.4-3.5-0.6c-0.1,0-0.2,0-0.3-0.1c-3.8-0.6-7.9-1.3-12.4-2c-0.1,0-0.2,0-0.4-0.1
		c-2.1-0.3-4.3-0.6-6.6-1c-0.3,0-0.7-0.1-1-0.1c-2.3-0.3-4.6-0.6-7-1c-0.3,0-0.7-0.1-1-0.1c-2.5-0.3-5.1-0.7-7.8-1
		c-0.1,0-0.1-1.5-0.2-1.5c-51.1-6.4-123.6-9.3-171-9.3c0,0,0,0-0.1,0c-2.4,0-4.7,2-7,2.3c-0.4,0-0.7,0.9-1.1,0.9
		c-2.1,0.3-4.2,1-6.2,1.3c-0.4,0.1-0.8,0.3-1.2,0.4c-2,0.3-3.9,0.8-5.8,1.2c-11.7,2.5-20.3,6.2-24.3,11.2
		c-26.4,34-15.1,264.2-15.1,264.2s-234-15.1-249.1-3.8c-15.1,11.3-22.6,290.7-7.5,332.2c11.8,32.4,124.6,18.9,173.7,11.3
		c1-0.2,1.9-0.3,2.8-0.4c0.7-0.1,1.3-0.2,1.9-0.3c11-1.7,17.9-3,17.9-3c-113.3-3.8-139.7-22.7-158.5-41.5
		c-18.9-18.9,3.8-237.8,7.6-252.9c3.8-15.1,256.7,0,256.7,0s-3.8-241.6,7.6-279.3c7.1-23.8,105.5-23.6,173.7-22.1
		c1.7,1.1,3.3,2.3,4.9,3.7c1,0.8,1.9,1.8,2.8,2.7C658.1,520.5,658.6,521,659,521.5z"/>
	<path fill="#00A9A2" d="M990.2,899.6c0-0.6,0-1.3,0-1.9c-0.1-3-0.2-6-0.3-9c0-0.2-0.4-0.3-0.4-0.5c0-1-0.5-2.1-0.5-3.1
		c0-0.1,0-0.1,0-0.2c0-2.7,0.2-5.3,0.1-7.9c0-1.2,0.1-2.4,0-3.6c0-0.3,0.1-0.6,0.1-0.8c-0.1-2.4-0.2-4.8-0.3-7.2
		c-0.1-1.5-0.1-3-0.2-4.5c-0.1-2.3-0.2-4.6-0.4-6.8c0-0.5-0.1-1-0.1-1.5c-0.1-1-0.1-2.1-0.2-3.1c-0.1-2-0.3-4.1-0.4-6.1
		c0-0.4-0.1-0.7-0.1-1c-0.2-2.5-0.4-5-0.6-7.4c0-0.4-0.1-0.8-0.1-1.2c-0.1-1.4-0.2-2.8-0.4-4.1c-0.2-1.9-0.3-3.7-0.5-5.5
		c-0.1-1.3-0.3-2.6-0.4-3.9c-0.2-1.7-0.4-3.3-0.5-4.9c-0.1-1.2-0.3-2.4-0.5-3.6c-0.2-1.5-0.4-3-0.6-4.4c-0.2-1-0.3-2.1-0.5-3.1
		c-0.2-1.4-0.5-2.7-0.7-4c-0.2-0.8-0.3-1.7-0.5-2.5c0-0.1,0-0.1,0-0.2c-0.3-1.3-0.5-2.4-0.8-3.5c-0.1-0.6-0.3-1.2-0.4-1.8
		c0-0.1,0-0.1-0.1-0.2c-0.4-1.5-0.9-2.9-1.3-4.1c-0.6-1.5-1.4-2.8-2.3-4.1c0,0,0,0,0,0c-0.3-0.4-0.7-0.8-1-1.1
		c-0.7-0.8-1.6-1.6-2.5-2.4c0,0,0,0-0.1,0c-0.5-0.4-0.9-0.7-1.4-1.1c-1-0.7-2.1-1.3-3.2-1.9c0,0-0.1,0-0.1-0.1
		c-0.5-0.3-1-0.6-1.6-0.8c-1.5-0.7-3.1-1.3-4.8-1.9c-0.2-0.1-0.4-0.2-0.6-0.2c-0.1,0-0.2-0.1-0.4-0.1c-2.1-0.7-4.3-1.3-6.7-1.8
		c-0.1,0-0.1,0-0.2,0c-0.6-0.1-1.2-0.3-1.9-0.4c-1.8-0.4-3.6-0.7-5.5-1c-0.1,0-0.1,0-0.2,0c-0.8-0.1-1.6-0.2-2.5-0.4
		c-1.8-0.3-3.7-0.5-5.7-0.7c-0.1,0-0.2,0-0.3,0c-0.8-0.1-1.6-0.2-2.4-0.2c-2.3-0.2-4.6-0.3-7-0.5c-0.4,0-0.7,0-1.1-0.1
		c-0.2,0-0.4,0.1-0.6,0c-3.1-0.1-6.2-0.1-9.5-0.1c-0.1,0-0.2,0-0.3,0c-0.3,0-0.6,0-0.9,0c-2.8,0-5.7,0-8.6,0c-0.1,0-0.2,0-0.4,0
		c-0.7,0-1.3,0-2,0c-2.6,0.1-5.3,0.2-7.9,0.3c-0.2,0-0.3,0-0.5,0c-0.6,0-1.2,0.1-1.8,0.1c-3.1,0.2-6.1,0.3-9.2,0.6
		c-0.3,0-0.6,0-0.8,0.1c-7.2,0.5-14.4,1.2-21.4,1.9c-0.1,0-0.2,0-0.4,0c-3.4,0.4-6.8,0.8-10.2,1.2c-0.1,0-0.3,0-0.4,0
		c-1.5,0.2-3,0.4-4.5,0.5l0,0c-2.1,0.3-4.2,0.5-6.2,0.8c-0.2,0-0.3,0-0.5,0.1c-1.4,0.2-2.7,0.4-4.1,0.6c-1.2,0.2-2.3,0.3-3.5,0.5
		c-1.1,0.2-2.2,0.3-3.4,0.5c-1.4,0.2-2.7,0.4-4.1,0.6c-0.9,0.1-1.8,0.3-2.7,0.4c-1.7,0.3-3.3,0.5-4.9,0.8c-0.5,0.1-1.1,0.2-1.6,0.2
		c-4.4,0.7-8.6,1.4-12.3,2.1c-0.2,0-0.4,0.1-0.6,0.1c-1.7,0.3-3.3,0.6-4.8,0.9c-0.2,0-0.4,0.1-0.6,0.1c-1.5,0.3-3,0.5-4.3,0.8
		c-0.1,0-0.2,0-0.3,0.1c-2.9,0.5-5.4,1-7.3,1.4c-0.1,0-0.1,0-0.2,0c-0.8,0.2-1.5,0.3-2.1,0.4c-0.1,0-0.2,0-0.4,0.1
		c-0.4,0.1-0.7,0.1-1,0.2c-0.5,0.1-0.8,0.2-0.8,0.2c113.3,1.5,140.1,19.9,159.3,38.4c0.6,0.6,1.1,1.3,1.6,2.2
		c0.2,0.3,0.4,0.8,0.5,1.2c0.3,0.6,0.6,1.3,0.9,2c0.2,0.6,0.4,1.3,0.6,1.9c0.2,0.7,0.4,1.4,0.6,2.1c0.2,0.8,0.4,1.8,0.6,2.7
		c0.1,0.7,0.3,1.4,0.4,2.2c0.2,1.1,0.4,2.3,0.6,3.5c0.1,0.7,0.2,1.3,0.3,2c0.2,1.4,0.4,2.9,0.5,4.4c0.1,0.6,0.1,1.1,0.2,1.7
		c0.2,1.7,0.3,3.5,0.5,5.3c0,0.5,0.1,0.9,0.1,1.4c0.1,2,0.3,4,0.4,6.1c0,0.1,0,0.3,0,0.4c0.9,16.4,0.9,36.4,0.4,57.6
		c0,0.6,0,1.3-0.1,1.9c-0.1,3.4-0.2,6.8-0.3,10.3c0,0.9-0.1,1.8-0.1,2.7c-0.1,3.4-0.2,6.8-0.4,10.2c0,0.9-0.1,1.8-0.1,2.7
		c-0.2,3.6-0.3,7.2-0.5,10.8c0,0.6-0.1,1.3-0.1,1.9c-0.2,4.3-0.4,8.5-0.7,12.7c0,0.1,0,0.2,0,0.4c-0.2,4-0.5,7.9-0.7,11.9
		c-0.1,1-0.1,2-0.2,3.1c-0.2,3-0.4,6-0.6,9c-0.1,1-0.1,2-0.2,3c-0.2,3.4-0.5,6.6-0.7,9.9c0,0.4-0.1,0.8-0.1,1.1
		c-2.4,33.7-5.1,59.8-6.2,64.6c-3.5,15.2-256.6,5.1-256.6,5.1s8.6,241.5-2,279.4c-10.6,38-252.6,20.1-237.3,27.4
		c15.2,7.3,249.8,32.8,275.6-1.7c25.7-34.5,9.8-264.5,9.8-264.5s234.3,10.4,249.2-1.2c2-1.5,3.7-7.9,5.2-17.7
		C989.9,1064.8,992.2,974.6,990.2,899.6z"/>
</g>
</svg>
